<svg width="32" height="32" viewBox="0 0 32 32" fill="none" xmlns="http://www.w3.org/2000/svg">
<path d="M4 13.333C3.99991 12.9451 4.08445 12.5618 4.24772 12.2099C4.41099 11.858 4.64906 11.546 4.94533 11.2956L14.2787 3.29696C14.76 2.89018 15.3698 2.66699 16 2.66699C16.6302 2.66699 17.24 2.89018 17.7213 3.29696L27.0547 11.2956C27.3509 11.546 27.589 11.858 27.7523 12.2099C27.9156 12.5618 28.0001 12.9451 28 13.333V25.333C28 26.0402 27.719 26.7185 27.219 27.2186C26.7189 27.7187 26.0406 27.9996 25.3333 27.9996H6.66667C5.95942 27.9996 5.28115 27.7187 4.78105 27.2186C4.28095 26.7185 4 26.0402 4 25.333V13.333Z" stroke="currentColor" stroke-width="2.66667" stroke-linecap="round" stroke-linejoin="round"/>
<line x1="11.335" y1="21.665" x2="20.665" y2="21.665" stroke="currentColor" stroke-width="2.67" stroke-linecap="round"/>
</svg>
